<svg width="57" height="57" viewBox="0 0 57 57" fill="none" xmlns="http://www.w3.org/2000/svg">
<path d="M28.8409 0C23.2715 0 17.8273 1.65281 13.1965 4.74941C8.56577 7.84602 4.95655 12.2473 2.82526 17.3968C0.693963 22.5463 0.13632 28.2126 1.22284 33.6793C2.30937 39.1459 4.99126 44.1673 8.92938 48.1086C12.8675 52.0498 17.885 54.7338 23.3473 55.8212C28.8096 56.9086 34.4715 56.3505 39.6169 54.2175C44.7623 52.0845 49.1601 48.4725 52.2543 43.8381C55.3485 39.2037 57 33.7551 57 28.1813C56.9914 20.7098 54.022 13.5467 48.7429 8.26354C43.4639 2.98036 36.3065 0.0085243 28.8409 0V0ZM28.8409 50.3668C24.4565 50.3668 20.1705 49.0656 16.525 46.6279C12.8795 44.1901 10.0382 40.7252 8.36039 36.6713C6.68255 32.6175 6.24355 28.1567 7.09891 23.8532C7.95426 19.5496 10.0656 15.5966 13.1658 12.4939C16.266 9.39119 20.216 7.27823 24.5161 6.4222C28.8163 5.56617 33.2735 6.00552 37.3242 7.68468C41.3748 9.36384 44.837 12.2074 47.2728 15.8558C49.7087 19.5042 51.0088 23.7935 51.0088 28.1813C51.0017 34.0631 48.6639 39.7019 44.5081 43.861C40.3524 48.02 34.718 50.3597 28.8409 50.3668Z" fill="#303133"/>
<path d="M43.5157 27.3171H30.8629V12.0831C30.8629 11.4673 30.6185 10.8768 30.1835 10.4415C29.7484 10.0061 29.1584 9.76147 28.5432 9.76147C27.9279 9.76147 27.3379 10.0061 26.9028 10.4415C26.4678 10.8768 26.2234 11.4673 26.2234 12.0831V29.6307C26.2234 29.9352 26.2833 30.2367 26.3998 30.5181C26.5162 30.7994 26.6869 31.0551 26.902 31.2704C27.1172 31.4857 27.3726 31.6565 27.6538 31.7731C27.9349 31.8896 28.2362 31.9496 28.5405 31.9496H43.5157C44.131 31.9496 44.721 31.705 45.1561 31.2696C45.5911 30.8342 45.8355 30.2437 45.8355 29.628C45.8355 29.0123 45.5911 28.4217 45.1561 27.9864C44.721 27.551 44.131 27.3064 43.5157 27.3064V27.3171Z" fill="#303133"/>
</svg>
