<?xml version="1.0" encoding="iso-8859-1"?>
<!-- Generator: Adobe Illustrator 19.0.0, SVG Export Plug-In . SVG Version: 6.00 Build 0)  -->
<svg version="1.1" id="Capa_1" xmlns="http://www.w3.org/2000/svg" xmlns:xlink="http://www.w3.org/1999/xlink" x="0px" y="0px"
	 viewBox="0 0 452.16 452.16" style="enable-background:new 0 0 452.16 452.16;" xml:space="preserve">
<g>
	<g>
		<path d="M200.16,43.92c-4.418,0-8,3.582-8,8v80c0,4.418,3.582,8,8,8s8-3.582,8-8v-80C208.16,47.502,204.579,43.92,200.16,43.92z"
			/>
	</g>
</g>
<g>
	<g>
		<path d="M250.08,0c-4.418,0-8,3.582-8,8v123.92c0,4.418,3.582,8,8,8s8-3.582,8-8V8C258.08,3.582,254.499,0,250.08,0z"/>
	</g>
</g>
<g>
	<g>
		<path d="M356.32,178.08v-13.6c-0.088-8.509-7.011-15.36-15.52-15.36H111.36c-8.571,0-15.52,6.949-15.52,15.52v13.44
			c-0.265,8.567,6.465,15.727,15.033,15.993c0.162,0.005,0.325,0.008,0.487,0.007h6.8l35.92,251.2c0.562,3.976,3.985,6.919,8,6.88
			h126.4c4.015,0.039,7.438-2.904,8-6.88l35.84-251.2h8.56c8.571-0.04,15.487-7.021,15.447-15.592
			C356.327,178.352,356.324,178.216,356.32,178.08z M281.52,436.16H168.96l-8-57.04h128.8L281.52,436.16z M291.92,363.12H158.56
			l-14.48-101.36h162L291.92,363.12z M308.72,245.76H141.76l-7.44-51.68h181.76L308.72,245.76z M125.12,177.76
			c-0.739,0.059-1.466,0.221-2.16,0.48h-11.12l-0.48-13.12l228.96-0.48l0.4,13.12H125.12z"/>
	</g>
</g>
<g>
	<g>
		<path d="M202.48,293.68c-14.24,16.56-17.52,37.12-7.36,45.92c5.52-38.56,45.44-25.52,51.6-60.08
			C236.56,270.8,216.72,277.12,202.48,293.68z"/>
	</g>
</g>
<g>
	<g>
		<path d="M255.36,286.96c-6.16,34.32-46.16,21.44-51.6,60c10.16,8.72,30,2.4,44.24-14.16S265.52,295.68,255.36,286.96z"/>
	</g>
</g>
<g>
</g>
<g>
</g>
<g>
</g>
<g>
</g>
<g>
</g>
<g>
</g>
<g>
</g>
<g>
</g>
<g>
</g>
<g>
</g>
<g>
</g>
<g>
</g>
<g>
</g>
<g>
</g>
<g>
</g>
</svg>
