<svg width="196" height="192" viewBox="0 0 196 192" fill="none" xmlns="http://www.w3.org/2000/svg">
<g clip-path="url(#clip0)">
<path d="M7.5376 61.1361V122.057L128.555 192.022L188.458 156.921V96L128.555 130.868L7.5376 61.1361Z" fill="#E0E0E2"/>
<path d="M116.705 132.853L18.7389 76.232V128.512L116.705 185.205V132.853Z" fill="#C6C5CB"/>
<path d="M27.784 117.945V92.2506L40.0589 99.3462V125.005L27.784 117.945Z" fill="#ACABB1"/>
<path d="M107.741 163.806V138.824L95.8058 131.926V156.836L107.741 163.806Z" fill="#ACABB1"/>
<path d="M52.7676 148.182V95.8835L82.9226 113.318V165.652L52.7676 148.182Z" fill="#ACABB1"/>
<path d="M67.3553 156.634L68.3394 157.203V104.887L67.3553 104.318V156.634Z" fill="#9A9A9B"/>
<path d="M69.9364 138.573C69.6754 138.573 69.4251 138.469 69.2405 138.284C69.056 138.1 68.9523 137.849 68.9523 137.588V128.87C68.9519 128.697 68.9972 128.527 69.0836 128.377C69.17 128.226 69.2944 128.102 69.4443 128.015L71.256 126.967C71.4818 126.84 71.7481 126.808 71.9974 126.877C72.2467 126.946 72.459 127.11 72.5883 127.334C72.7176 127.558 72.7536 127.825 72.6884 128.075C72.6233 128.326 72.4623 128.541 72.2402 128.673L70.8982 129.435V135.876L71.2337 135.684C71.4594 135.557 71.7258 135.525 71.9751 135.594C72.2244 135.663 72.4366 135.827 72.5659 136.051C72.6952 136.276 72.7312 136.542 72.6661 136.792C72.6009 137.043 72.4399 137.258 72.2178 137.391L70.4061 138.439C70.2635 138.523 70.1019 138.569 69.9364 138.573Z" fill="#D8D8DA"/>
<path d="M63.374 134.797C63.2447 134.797 63.1167 134.771 62.9973 134.722C62.8779 134.672 62.7695 134.6 62.6781 134.508C62.5867 134.417 62.5142 134.308 62.4648 134.189C62.4153 134.069 62.3898 133.941 62.3898 133.811V125.094C62.3895 124.921 62.4348 124.751 62.5212 124.6C62.6076 124.45 62.732 124.325 62.8819 124.239L64.6936 123.191C64.9194 123.064 65.1857 123.032 65.435 123.101C65.6843 123.17 65.8966 123.334 66.0259 123.558C66.1552 123.782 66.1911 124.048 66.126 124.299C66.0609 124.55 65.8998 124.765 65.6778 124.897L64.3581 125.659V132.1L64.6936 131.908C64.9194 131.781 65.1857 131.749 65.435 131.818C65.6843 131.887 65.8966 132.051 66.0259 132.275C66.1552 132.499 66.1911 132.766 66.126 133.016C66.0609 133.267 65.8998 133.482 65.6778 133.614L63.866 134.663C63.7168 134.75 63.547 134.797 63.374 134.797Z" fill="#D8D8DA"/>
<path d="M128.555 130.868L188.458 96V156.921L128.555 192.022V130.868Z" fill="#C6C5CB"/>
<path d="M67.8474 0L188.462 69.7323L196 91.5205L120.615 135.106L0 65.3737L7.5376 34.8639L67.8474 0Z" fill="#BE9B7B"/>
<path d="M120.615 135.11L128.153 104.601L188.458 69.7367L195.996 91.5294L120.615 135.11Z" fill="#9E7A5F"/>
<path d="M7.5376 34.8639L128.153 104.596L120.615 135.097L0 65.3737L7.5376 34.8639Z" fill="#B28F72"/>
<path d="M22.6173 34.8684L67.8474 8.71713L173.383 69.7323L128.153 95.8836L22.6173 34.8684Z" fill="#825E45"/>
<path d="M103.907 66.0726L126.797 52.8357L149.687 66.0726V76.1246L126.797 89.3614L103.907 76.1246V66.0726Z" fill="#E0E0E2"/>
<path d="M120.798 62.6053C120.076 62.8526 119.449 63.3198 119.006 63.9415C118.562 64.5632 118.323 65.3082 118.323 66.0725C118.323 66.8367 118.562 67.5818 119.006 68.2035C119.449 68.8252 120.076 69.2923 120.798 69.5396C122.66 70.4799 124.716 70.9698 126.802 70.9698C128.887 70.9698 130.943 70.4799 132.805 69.5396C133.527 69.2923 134.154 68.8252 134.598 68.2035C135.042 67.5818 135.28 66.8367 135.28 66.0725C135.28 65.3082 135.042 64.5632 134.598 63.9415C134.154 63.3198 133.527 62.8526 132.805 62.6053C130.943 61.6639 128.887 61.1735 126.802 61.1735C124.716 61.1735 122.66 61.6639 120.798 62.6053Z" fill="#C6C5CB"/>
<path d="M103.907 66.0725V76.1335L126.797 89.3704V79.3094L103.907 66.0725Z" fill="#C6C5CB"/>
<path d="M126.802 89.3704L149.692 76.1335V66.0725L126.802 79.3094V89.3704Z" fill="#ACABB1"/>
<path d="M79.9567 38.0309V32.8706C79.8662 31.8573 79.5071 30.8867 78.9164 30.059C78.3258 29.2313 77.5252 28.5766 76.5972 28.1626C74.0713 26.8854 71.281 26.2199 68.4513 26.2199C65.6215 26.2199 62.8313 26.8854 60.3053 28.1626C59.3776 28.5776 58.577 29.2324 57.9858 30.0598C57.3946 30.8873 57.0341 31.8574 56.9413 32.8706V38.0309C57.0315 39.0437 57.3899 40.014 57.9797 40.8416C58.5695 41.6693 59.3693 42.3242 60.2964 42.7389C62.8229 44.0144 65.6129 44.6788 68.4423 44.6788C71.2718 44.6788 74.0618 44.0144 76.5883 42.7389C77.5171 42.3249 78.3188 41.6705 78.9109 40.8429C79.503 40.0154 79.864 39.0447 79.9567 38.0309Z" fill="#C6C5CB"/>
<path d="M60.3053 28.1581C59.3284 28.4964 58.4812 29.1312 57.8815 29.9742C57.2818 30.8172 56.9596 31.8266 56.9596 32.8616C56.9596 33.8966 57.2818 34.9059 57.8815 35.7489C58.4812 36.592 59.3284 37.2268 60.3053 37.565C62.8318 38.8406 65.6218 39.505 68.4513 39.505C71.2807 39.505 74.0707 38.8406 76.5972 37.565C77.5762 37.2289 78.4258 36.5949 79.0274 35.7516C79.6289 34.9083 79.9523 33.8979 79.9523 32.8616C79.9523 31.8253 79.6289 30.8148 79.0274 29.9715C78.4258 29.1282 77.5762 28.4942 76.5972 28.1581C74.0711 26.8812 71.281 26.216 68.4513 26.216C65.6216 26.216 62.8314 26.8812 60.3053 28.1581Z" fill="#E0E0E2"/>
<path d="M102.972 51.3305V46.1701C102.882 45.1569 102.522 44.1863 101.932 43.3586C101.341 42.5309 100.541 41.8762 99.6127 41.4622C97.0867 40.1849 94.2964 39.5195 91.4667 39.5195C88.6369 39.5195 85.8467 40.1849 83.3207 41.4622C82.3928 41.8768 81.5919 42.5315 81.0006 43.359C80.4094 44.1865 80.0491 45.1569 79.9568 46.1701V51.3305C80.0464 52.3434 80.4047 53.3139 80.9946 54.1416C81.5844 54.9693 82.3844 55.6242 83.3118 56.0384C85.8383 57.314 88.6283 57.9784 91.4577 57.9784C94.2872 57.9784 97.0772 57.314 99.6037 56.0384C100.532 55.6245 101.334 54.97 101.926 54.1425C102.518 53.3149 102.879 52.3443 102.972 51.3305Z" fill="#C6C5CB"/>
<path d="M83.3162 41.4577C82.3394 41.796 81.4921 42.4308 80.8924 43.2738C80.2927 44.1169 79.9704 45.1261 79.9704 46.1612C79.9704 47.1962 80.2927 48.2055 80.8924 49.0486C81.4921 49.8916 82.3394 50.5264 83.3162 50.8647C85.8433 52.1409 88.6341 52.8057 91.4644 52.8057C94.2947 52.8057 97.0855 52.1409 99.6126 50.8647C100.592 50.5286 101.441 49.8945 102.043 49.0513C102.644 48.208 102.968 47.1975 102.968 46.1612C102.968 45.1248 102.644 44.1144 102.043 43.2711C101.441 42.4278 100.592 41.7938 99.6126 41.4577C97.086 40.1798 94.295 39.5139 91.4644 39.5139C88.6338 39.5139 85.8428 40.1798 83.3162 41.4577Z" fill="#E0E0E2"/>
<path d="M30.1549 39.2269C30.3607 39.2001 67.8474 17.4342 67.8474 17.4342V8.71713L22.6173 34.8684L30.1549 39.2269Z" fill="#9E7A5F"/>
<path d="M67.8429 17.4342L165.845 74.0819L173.383 69.7233L67.8429 8.71713V17.4342Z" fill="#B28F72"/>
<path d="M143.232 130.748V148.182L158.249 139.5V122.071L143.232 130.748Z" fill="#ACABB1"/>
<path d="M30.1549 34.5279V69.3202L98.0022 108.543L102.207 106.142V71.2777L34.494 32.1314L30.1549 34.5279Z" fill="#E0E0E2"/>
<path d="M97.9977 108.543L102.203 106.142V71.2732L97.9977 73.6743V108.543Z" fill="#C6C5CB"/>
<path d="M30.1549 34.5279L34.494 32.1314L102.207 71.2777L98.0022 73.6787L30.1549 34.5279Z" fill="white"/>
<path d="M48.2764 145.606L49.2605 146.175V93.8678L48.2764 93.2989V145.606Z" fill="#ACABB1"/>
<path d="M86.1836 167.542L87.1677 168.111V115.781L86.1836 115.213V167.542Z" fill="#ACABB1"/>
</g>
<defs>
<clipPath id="clip0">
<rect width="196" height="192" fill="white"/>
</clipPath>
</defs>
</svg>
