<svg width="57" height="57" viewBox="0 0 57 57" fill="none" xmlns="http://www.w3.org/2000/svg">
<path d="M39.4019 0.637329H18.2799C13.613 0.638752 9.13767 2.49475 5.83769 5.79734C2.53772 9.09992 0.683184 13.5788 0.681763 18.2493L0.681763 39.388C0.683184 44.0586 2.53772 48.5374 5.83769 51.84C9.13767 55.1426 13.613 56.9986 18.2799 57H39.4019C44.0687 56.9986 48.544 55.1426 51.844 51.84C55.144 48.5374 56.9985 44.0586 56.9999 39.388V18.2493C56.9985 13.5788 55.144 9.09992 51.844 5.79734C48.544 2.49475 44.0687 0.638752 39.4019 0.637329ZM51.7382 39.388C51.7382 42.6624 50.4385 45.8027 48.125 48.1181C45.8115 50.4334 42.6737 51.7341 39.4019 51.7341H18.2799C15.008 51.7341 11.8702 50.4334 9.55673 48.1181C7.24321 45.8027 5.94349 42.6624 5.94349 39.388V18.2493C5.94349 14.9749 7.24321 11.8347 9.55673 9.51931C11.8702 7.20396 15.008 5.90322 18.2799 5.90322H39.4019C42.6737 5.90322 45.8115 7.20396 48.125 9.51931C50.4385 11.8347 51.7382 14.9749 51.7382 18.2493V39.388Z" fill="black"/>
<path d="M28.8408 14.728C26.0561 14.728 23.334 15.5545 21.0186 17.1028C18.7033 18.6511 16.8986 20.8517 15.833 23.4264C14.7674 26.0011 14.4886 28.8343 15.0318 31.5677C15.5751 34.301 16.916 36.8117 18.8851 38.7823C20.8541 40.7529 23.3629 42.0949 26.094 42.6386C28.8252 43.1823 31.6561 42.9033 34.2288 41.8368C36.8015 40.7703 39.0004 38.9642 40.5475 36.6471C42.0946 34.3299 42.9204 31.6056 42.9204 28.8187C42.9204 25.0816 41.437 21.4976 38.7966 18.8551C36.1561 16.2126 32.5749 14.728 28.8408 14.728ZM28.8408 37.6274C27.1 37.6274 25.3982 37.1107 23.9508 36.1428C22.5034 35.1749 21.3753 33.7992 20.7091 32.1897C20.0429 30.5801 19.8686 28.8089 20.2082 27.1002C20.5478 25.3915 21.3862 23.822 22.6171 22.5901C23.848 21.3581 25.4163 20.5192 27.1237 20.1793C28.831 19.8394 30.6008 20.0138 32.2091 20.6806C33.8174 21.3473 35.192 22.4762 36.1592 23.9248C37.1263 25.3734 37.6426 27.0765 37.6426 28.8187C37.6397 31.154 36.7115 33.3929 35.0614 35.0442C33.4114 36.6955 31.1743 37.6246 28.8408 37.6274Z" fill="black"/>
<path d="M43.9769 15.5493C45.0137 15.5493 45.8542 14.7082 45.8542 13.6706C45.8542 12.633 45.0137 11.7918 43.9769 11.7918C42.9402 11.7918 42.0997 12.633 42.0997 13.6706C42.0997 14.7082 42.9402 15.5493 43.9769 15.5493Z" fill="black"/>
</svg>
