<svg width="59" height="72" viewBox="0 0 59 72" fill="none" xmlns="http://www.w3.org/2000/svg">
<path d="M56.3181 30.2798C56.3181 51.1555 29.4999 69.0466 29.4999 69.0466C29.4999 69.0466 2.68176 51.1555 2.68176 30.2798C2.68176 23.1616 5.50724 16.3349 10.5366 11.3015C15.566 6.26817 22.3873 3.44046 29.4999 3.44046C36.6126 3.44046 43.4339 6.26817 48.4633 11.3015C53.4926 16.3349 56.3181 23.1616 56.3181 30.2798V30.2798Z" stroke="#303133" stroke-width="5" stroke-linecap="round" stroke-linejoin="round"/>
<path d="M29.4999 41.6114C35.4244 41.6114 40.2272 36.8048 40.2272 30.8757C40.2272 24.9465 35.4244 20.1399 29.4999 20.1399C23.5754 20.1399 18.7726 24.9465 18.7726 30.8757C18.7726 36.8048 23.5754 41.6114 29.4999 41.6114Z" stroke="#303133" stroke-width="5" stroke-linecap="round" stroke-linejoin="round"/>
</svg>
