<svg width="55" height="54" viewBox="0 0 55 54" fill="none" xmlns="http://www.w3.org/2000/svg">
<path d="M40.3728 30.9164C40.2709 30.8681 36.3554 28.9411 35.6635 28.6888C35.3739 28.5679 35.0652 28.4989 34.7517 28.4848C34.4832 28.4891 34.2205 28.5631 33.9892 28.6995C33.7579 28.8359 33.566 29.0302 33.4323 29.2631C33.0407 29.8429 31.8607 31.2278 31.496 31.6411C31.4477 31.6948 31.3834 31.7592 31.3458 31.7592C31.3083 31.7592 30.7075 31.5123 30.5198 31.4318C27.3608 29.8282 24.6691 27.4357 22.705 24.4857C22.6735 24.4386 22.6516 24.3857 22.6406 24.3301C22.7045 24.2302 22.7822 24.1398 22.8713 24.0617C23.0858 23.8523 23.3164 23.5732 23.5364 23.3048L23.8528 22.929C24.1105 22.6244 24.3235 22.2846 24.4857 21.9199L24.5715 21.7427C24.7042 21.474 24.7687 21.1768 24.7594 20.8772C24.75 20.5776 24.6671 20.2849 24.5179 20.025C24.4267 19.8425 22.7747 15.8542 22.5977 15.4355C22.174 14.4264 21.6162 13.954 20.8438 13.954H20.5434C19.4185 14.0352 18.3174 14.3188 17.2931 14.7914C16.435 15.4812 15.7569 16.3691 15.3169 17.3788C14.8769 18.3885 14.6881 19.4899 14.7668 20.5887C14.9482 23.0988 15.8829 25.4955 17.4486 27.4649L17.5613 27.6259C20.2101 31.7797 24.0051 35.0762 28.487 37.1163C30.5566 38.1004 32.7968 38.6745 35.0843 38.8072C35.4427 38.8044 35.8008 38.7829 36.157 38.7428H36.3501C37.3573 38.5636 38.3124 38.1637 39.147 37.5716C39.9815 36.9795 40.6749 36.2099 41.1774 35.3181C41.6797 34.1989 41.7875 32.9423 41.4831 31.7538C41.2008 31.3739 40.8155 31.0833 40.3728 30.9164Z" fill="#303133"/>
<path d="M27.9774 0.0725896C21.0191 0.0554447 14.3379 2.80064 9.39905 7.70618C4.46018 12.6117 1.66672 19.2772 1.63124 26.241C1.62977 30.8961 2.87834 35.4661 5.24633 39.4728L0.719417 52.8281C0.679135 52.9499 0.673166 53.0804 0.702167 53.2053C0.731168 53.3303 0.794015 53.4448 0.883806 53.5363C0.973597 53.6278 1.08686 53.6928 1.21114 53.7241C1.33543 53.7554 1.46594 53.7519 1.58833 53.7138L15.507 49.2853C19.5085 51.424 23.9934 52.4939 28.5287 52.3919C33.0639 52.2898 37.4963 51.0192 41.3978 48.7027C45.2992 46.3862 48.5379 43.1021 50.8012 39.1675C53.0645 35.2329 54.2758 30.7808 54.3182 26.241C54.2828 19.2781 51.49 12.6135 46.5523 7.70808C41.6146 2.80269 34.9348 0.056868 27.9774 0.0725896ZM27.9774 46.9556C23.8996 46.9684 19.9073 45.7853 16.4939 43.5524C16.4069 43.4954 16.3083 43.4586 16.2053 43.4447C16.1023 43.4307 15.9975 43.44 15.8985 43.4719L8.92578 45.6888L11.1785 39.0434C11.2141 38.9378 11.224 38.8251 11.2072 38.7149C11.1904 38.6047 11.1474 38.5002 11.082 38.41C8.49244 34.8832 7.10299 30.6175 7.11824 26.241C7.08529 22.1042 8.28092 18.0508 10.5534 14.5951C12.8259 11.1394 16.0729 8.43717 19.8824 6.83119C23.6919 5.2252 27.8922 4.78788 31.9504 5.57469C36.0086 6.36149 39.7418 8.33698 42.6764 11.2505C45.6111 14.164 47.6148 17.8843 48.4334 21.9393C49.2521 25.9943 48.8487 30.2013 47.2745 34.0265C45.7003 37.8517 43.0263 41.1228 39.5916 43.4247C36.1569 45.7265 32.1165 46.9555 27.9828 46.9556H27.9774Z" fill="#303133"/>
</svg>
